0
SECTION
2
HEADER
9
$INSUNITS
70
4
9
$ACADVER
1
AC1014
9
$HANDSEED
5
FFFF
0
ENDSEC
0
SECTION
2
TABLES
0
TABLE
2
VPORT
5
8
100
AcDbSymbolTable
0
ENDTAB
0
TABLE
2
LTYPE
5
5
100
AcDbSymbolTable
0
LTYPE
5
14
100
AcDbSymbolTableRecord
100
AcDbLinetypeTableRecord
2
BYBLOCK
70
0
0
LTYPE
5
15
100
AcDbSymbolTableRecord
100
AcDbLinetypeTableRecord
2
BYLAYER
70
0
0
ENDTAB
0
TABLE
2
LAYER
5
2
100
AcDbSymbolTable
70
2
0
LAYER
5
50
100
AcDbSymbolTableRecord
100
AcDbLayerTableRecord
2
0
70
0
6
CONTINUOUS
0
ENDTAB
0
TABLE
2
STYLE
5
3
100
AcDbSymbolTable
70
1
0
STYLE
5
11
100
AcDbSymbolTableRecord
100
AcDbTextStyleTableRecord
2
STANDARD
70
0
0
ENDTAB
0
TABLE
2
VIEW
5
6
100
AcDbSymbolTable
70
0
0
ENDTAB
0
TABLE
2
UCS
5
7
100
AcDbSymbolTable
70
0
0
ENDTAB
0
TABLE
2
APPID
5
9
100
AcDbSymbolTable
70
2
0
APPID
5
12
100
AcDbSymbolTableRecord
100
AcDbRegAppTableRecord
2
ACAD
70
0
0
ENDTAB
0
TABLE
2
DIMSTYLE
5
A
100
AcDbSymbolTable
70
1
0
ENDTAB
0
TABLE
2
BLOCK_RECORD
5
1
100
AcDbSymbolTable
70
1
0
BLOCK_RECORD
5
1F
100
AcDbSymbolTableRecord
100
AcDbBlockTableRecord
2
*MODEL_SPACE
0
BLOCK_RECORD
5
1B
100
AcDbSymbolTableRecord
100
AcDbBlockTableRecord
2
*PAPER_SPACE
0
ENDTAB
0
ENDSEC
0
SECTION
2
BLOCKS
0
BLOCK
5
20
100
AcDbEntity
100
AcDbBlockBegin
2
*MODEL_SPACE
0
ENDBLK
5
21
100
AcDbEntity
100
AcDbBlockEnd
0
BLOCK
5
1C
100
AcDbEntity
100
AcDbBlockBegin
2
*PAPER_SPACE
0
ENDBLK
5
1D
100
AcDbEntity
100
AcDbBlockEnd
0
ENDSEC
0
SECTION
2
ENTITIES
0
CIRCLE
5
100
100
AcDbEntity
8
0
100
AcDbCircle
10
-3.25
20
4.9000000000000004
30
0
40
0.625
0
LINE
5
101
100
AcDbEntity
8
0
100
AcDbLine
10
10.699999760836361
20
0
30
0
11
-20.215177170783175
21
0
31
0
0
CIRCLE
5
102
100
AcDbEntity
8
0
100
AcDbCircle
10
-3.25
20
-3.1000000000000005
30
0
40
0.625
0
LINE
5
103
100
AcDbEntity
8
0
100
AcDbLine
10
-1.8500000000000045
20
-8.1999999999999957
30
0
11
-3.850000000000005
21
-8.1999999999999993
31
0
0
LINE
5
104
100
AcDbEntity
8
0
100
AcDbLine
10
-3.850000000000005
20
-8.1999999999999993
30
0
11
-3.850000000000005
21
-7.1999999999999984
31
0
0
LINE
5
105
100
AcDbEntity
8
0
100
AcDbLine
10
-3.850000000000005
20
-7.1999999999999984
30
0
11
-1.8500000000000054
21
-7.2000000000000028
31
0
0
LINE
5
106
100
AcDbEntity
8
0
100
AcDbLine
10
-1.8500000000000054
20
-7.2000000000000028
30
0
11
-1.8500000000000045
21
-8.1999999999999957
31
0
0
LINE
5
107
100
AcDbEntity
8
0
100
AcDbLine
10
-1.8500000000000045
20
-8.1999999999999957
30
0
11
-3.850000000000005
21
-7.1999999999999984
31
0
0
LINE
5
108
100
AcDbEntity
8
0
100
AcDbLine
10
-3.850000000000005
20
-8.1999999999999993
30
0
11
-1.8500000000000054
21
-7.2000000000000028
31
0
0
LINE
5
109
100
AcDbEntity
8
0
100
AcDbLine
10
7.4500000000000011
20
7.3200000000000003
30
0
11
6.050000000000006
21
7.3200000000000003
31
0
0
LINE
5
110
100
AcDbEntity
8
0
100
AcDbLine
10
6.050000000000006
20
7.3200000000000003
30
0
11
6.050000000000006
21
8.1999999999999993
31
0
0
LINE
5
111
100
AcDbEntity
8
0
100
AcDbLine
10
6.050000000000006
20
8.1999999999999993
30
0
11
7.4500000000000011
21
8.1999999999999993
31
0
0
LINE
5
112
100
AcDbEntity
8
0
100
AcDbLine
10
7.4500000000000011
20
8.1999999999999993
30
0
11
7.4500000000000011
21
7.3200000000000003
31
0
0
LINE
5
113
100
AcDbEntity
8
0
100
AcDbLine
10
7.4500000000000011
20
7.3200000000000003
30
0
11
6.050000000000006
21
8.1999999999999993
31
0
0
LINE
5
114
100
AcDbEntity
8
0
100
AcDbLine
10
6.050000000000006
20
7.3200000000000003
30
0
11
7.4500000000000011
21
8.1999999999999993
31
0
0
LINE
5
115
100
AcDbEntity
8
0
100
AcDbLine
10
7.4499999999997275
20
-7.5999999999999996
30
0
11
6.0499999999997298
21
-7.6000000000000334
31
0
0
LINE
5
116
100
AcDbEntity
8
0
100
AcDbLine
10
6.0499999999997298
20
-7.6000000000000334
30
0
11
6.0499999999997094
21
-6.0500000000000327
31
0
0
LINE
5
117
100
AcDbEntity
8
0
100
AcDbLine
10
6.0499999999997094
20
-6.0500000000000327
30
0
11
7.4499999999995818
21
-6.0500000000000087
31
0
0
LINE
5
118
100
AcDbEntity
8
0
100
AcDbLine
10
7.4499999999995818
20
-6.0500000000000087
30
0
11
7.4499999999997275
21
-7.5999999999999996
31
0
0
LINE
5
119
100
AcDbEntity
8
0
100
AcDbLine
10
7.4499999999997275
20
-7.5999999999999996
30
0
11
6.0499999999997094
21
-6.0500000000000327
31
0
0
LINE
5
120
100
AcDbEntity
8
0
100
AcDbLine
10
6.0499999999997298
20
-7.6000000000000334
30
0
11
7.4499999999995818
21
-6.0500000000000087
31
0
0
LINE
5
121
100
AcDbEntity
8
0
100
AcDbLine
10
-1.8500000000000001
20
7.1999999999999993
30
0
11
-3.8500000000000005
21
7.1999999999999993
31
0
0
LINE
5
122
100
AcDbEntity
8
0
100
AcDbLine
10
-3.8500000000000005
20
7.1999999999999993
30
0
11
-3.8500000000000005
21
8.1999999999999993
31
0
0
LINE
5
123
100
AcDbEntity
8
0
100
AcDbLine
10
-3.8500000000000005
20
8.1999999999999993
30
0
11
-1.8500000000000003
21
8.1999999999999993
31
0
0
LINE
5
124
100
AcDbEntity
8
0
100
AcDbLine
10
-1.8500000000000003
20
8.1999999999999993
30
0
11
-1.8500000000000001
21
7.1999999999999993
31
0
0
LINE
5
125
100
AcDbEntity
8
0
100
AcDbLine
10
-1.8500000000000001
20
7.1999999999999993
30
0
11
-3.8500000000000005
21
8.1999999999999993
31
0
0
LINE
5
126
100
AcDbEntity
8
0
100
AcDbLine
10
-3.8500000000000005
20
7.1999999999999993
30
0
11
-1.8500000000000003
21
8.1999999999999993
31
0
0
LINE
5
127
100
AcDbEntity
8
0
100
AcDbLine
10
-3.25
20
4.9000000000000004
30
0
11
-3.25
21
-5.5000000819563866
31
0
0
LINE
5
128
100
AcDbEntity
8
0
100
AcDbLine
10
8
20
4.0500000000000007
30
0
11
6.8499999999999979
21
4.0500000000000007
31
0
0
LINE
5
129
100
AcDbEntity
8
0
100
AcDbLine
10
6.8499999999999979
20
4.0500000000000007
30
0
11
6.8499999999999979
21
4.7500000000000018
31
0
0
LINE
5
130
100
AcDbEntity
8
0
100
AcDbLine
10
6.8499999999999979
20
4.7500000000000018
30
0
11
8
21
4.7500000000000018
31
0
0
LINE
5
131
100
AcDbEntity
8
0
100
AcDbLine
10
8
20
4.7500000000000018
30
0
11
8
21
4.0500000000000007
31
0
0
LINE
5
132
100
AcDbEntity
8
0
100
AcDbLine
10
8
20
4.0500000000000007
30
0
11
6.8499999999999979
21
4.7500000000000018
31
0
0
LINE
5
133
100
AcDbEntity
8
0
100
AcDbLine
10
6.8499999999999979
20
4.0500000000000007
30
0
11
8
21
4.7500000000000018
31
0
0
LINE
5
134
100
AcDbEntity
8
0
100
AcDbLine
10
6.8500000000000005
20
2.9500000000000002
30
0
11
6.8500000000000005
21
3.6499999999999995
31
0
0
LINE
5
135
100
AcDbEntity
8
0
100
AcDbLine
10
6.8500000000000005
20
2.9500000000000002
30
0
11
8.0000000000000036
21
3.6500000000000004
31
0
0
LINE
5
136
100
AcDbEntity
8
0
100
AcDbLine
10
8.0000000000000036
20
2.9500000000000002
30
0
11
6.8500000000000005
21
3.6499999999999995
31
0
0
LINE
5
137
100
AcDbEntity
8
0
100
AcDbLine
10
8.0000000000000036
20
3.6500000000000004
30
0
11
8.0000000000000036
21
2.9500000000000002
31
0
0
LINE
5
138
100
AcDbEntity
8
0
100
AcDbLine
10
6.8500000000000005
20
3.6499999999999995
30
0
11
8.0000000000000036
21
3.6500000000000004
31
0
0
LINE
5
139
100
AcDbEntity
8
0
100
AcDbLine
10
8.0000000000000036
20
2.9500000000000002
30
0
11
6.8500000000000005
21
2.9500000000000002
31
0
0
LINE
5
140
100
AcDbEntity
8
0
100
AcDbLine
10
6.8499999999999961
20
1.8499999999999994
30
0
11
6.8499999999999961
21
2.5499999999999998
31
0
0
LINE
5
141
100
AcDbEntity
8
0
100
AcDbLine
10
6.8499999999999961
20
1.8499999999999994
30
0
11
7.9999999999999982
21
2.5500000000000007
31
0
0
LINE
5
142
100
AcDbEntity
8
0
100
AcDbLine
10
7.9999999999999982
20
1.8500000000000005
30
0
11
6.8499999999999961
21
2.5499999999999998
31
0
0
LINE
5
143
100
AcDbEntity
8
0
100
AcDbLine
10
7.9999999999999982
20
2.5500000000000007
30
0
11
7.9999999999999982
21
1.8500000000000005
31
0
0
LINE
5
144
100
AcDbEntity
8
0
100
AcDbLine
10
6.8499999999999961
20
2.5499999999999998
30
0
11
7.9999999999999982
21
2.5500000000000007
31
0
0
LINE
5
145
100
AcDbEntity
8
0
100
AcDbLine
10
7.9999999999999982
20
1.8500000000000005
30
0
11
6.8499999999999961
21
1.8499999999999994
31
0
0
LINE
5
146
100
AcDbEntity
8
0
100
AcDbLine
10
6.8500000000000032
20
0.75000000000000122
30
0
11
6.8500000000000032
21
1.4500000000000006
31
0
0
LINE
5
147
100
AcDbEntity
8
0
100
AcDbLine
10
6.8500000000000032
20
0.75000000000000122
30
0
11
8.0000000000000053
21
1.4500000000000015
31
0
0
LINE
5
148
100
AcDbEntity
8
0
100
AcDbLine
10
8.0000000000000053
20
0.75000000000000044
30
0
11
6.8500000000000032
21
1.4500000000000006
31
0
0
LINE
5
149
100
AcDbEntity
8
0
100
AcDbLine
10
8.0000000000000053
20
1.4500000000000015
30
0
11
8.0000000000000053
21
0.75000000000000044
31
0
0
LINE
5
150
100
AcDbEntity
8
0
100
AcDbLine
10
6.8500000000000032
20
1.4500000000000006
30
0
11
8.0000000000000053
21
1.4500000000000015
31
0
0
LINE
5
151
100
AcDbEntity
8
0
100
AcDbLine
10
8.0000000000000053
20
0.75000000000000044
30
0
11
6.8500000000000032
21
0.75000000000000122
31
0
0
LINE
5
152
100
AcDbEntity
8
0
100
AcDbLine
10
6.8499999999999943
20
-0.35000000000000198
30
0
11
6.8499999999999943
21
0.35000000000000409
31
0
0
LINE
5
153
100
AcDbEntity
8
0
100
AcDbLine
10
6.8499999999999943
20
-0.35000000000000198
30
0
11
7.9999999999999964
21
0.34999999999999909
31
0
0
LINE
5
154
100
AcDbEntity
8
0
100
AcDbLine
10
7.9999999999999964
20
-0.3500000000000002
30
0
11
6.8499999999999943
21
0.35000000000000409
31
0
0
LINE
5
155
100
AcDbEntity
8
0
100
AcDbLine
10
7.9999999999999964
20
0.34999999999999909
30
0
11
7.9999999999999964
21
-0.3500000000000002
31
0
0
LINE
5
156
100
AcDbEntity
8
0
100
AcDbLine
10
6.8499999999999943
20
0.35000000000000409
30
0
11
7.9999999999999964
21
0.34999999999999909
31
0
0
LINE
5
157
100
AcDbEntity
8
0
100
AcDbLine
10
7.9999999999999964
20
-0.3500000000000002
30
0
11
6.8499999999999943
21
-0.35000000000000198
31
0
0
LINE
5
158
100
AcDbEntity
8
0
100
AcDbLine
10
6.8499999999999979
20
-1.4500000000000002
30
0
11
6.8499999999999979
21
-0.74999999999999978
31
0
0
LINE
5
159
100
AcDbEntity
8
0
100
AcDbLine
10
6.8499999999999979
20
-1.4500000000000002
30
0
11
8
21
-0.75000000000000044
31
0
0
LINE
5
160
100
AcDbEntity
8
0
100
AcDbLine
10
8
20
-1.4500000000000002
30
0
11
6.8499999999999979
21
-0.74999999999999978
31
0
0
LINE
5
161
100
AcDbEntity
8
0
100
AcDbLine
10
8
20
-0.75000000000000044
30
0
11
8
21
-1.4500000000000002
31
0
0
LINE
5
162
100
AcDbEntity
8
0
100
AcDbLine
10
6.8499999999999979
20
-0.74999999999999978
30
0
11
8
21
-0.75000000000000044
31
0
0
LINE
5
163
100
AcDbEntity
8
0
100
AcDbLine
10
8
20
-1.4500000000000002
30
0
11
6.8499999999999979
21
-1.4500000000000002
31
0
0
LINE
5
164
100
AcDbEntity
8
0
100
AcDbLine
10
6.8499999999999979
20
-2.5499999999999998
30
0
11
6.8499999999999979
21
-1.8500000000000005
31
0
0
LINE
5
165
100
AcDbEntity
8
0
100
AcDbLine
10
6.8499999999999979
20
-2.5499999999999998
30
0
11
8
21
-1.8500000000000005
31
0
0
LINE
5
166
100
AcDbEntity
8
0
100
AcDbLine
10
8
20
-2.5499999999999998
30
0
11
6.8499999999999979
21
-1.8500000000000005
31
0
0
LINE
5
167
100
AcDbEntity
8
0
100
AcDbLine
10
8
20
-1.8500000000000005
30
0
11
8
21
-2.5499999999999998
31
0
0
LINE
5
168
100
AcDbEntity
8
0
100
AcDbLine
10
6.8499999999999979
20
-1.8500000000000005
30
0
11
8
21
-1.8500000000000005
31
0
0
LINE
5
169
100
AcDbEntity
8
0
100
AcDbLine
10
8
20
-2.5499999999999998
30
0
11
6.8499999999999979
21
-2.5499999999999998
31
0
0
LINE
5
170
100
AcDbEntity
8
0
100
AcDbLine
10
6.8499999999999979
20
5.1499999999999986
30
0
11
6.8499999999999979
21
5.8500000000000041
31
0
0
LINE
5
171
100
AcDbEntity
8
0
100
AcDbLine
10
6.8499999999999979
20
5.1499999999999986
30
0
11
7.9999999999999982
21
5.8500000000000014
31
0
0
LINE
5
172
100
AcDbEntity
8
0
100
AcDbLine
10
7.9999999999999982
20
5.1500000000000039
30
0
11
6.8499999999999979
21
5.8500000000000041
31
0
0
LINE
5
173
100
AcDbEntity
8
0
100
AcDbLine
10
7.9999999999999982
20
5.8500000000000014
30
0
11
7.9999999999999982
21
5.1500000000000039
31
0
0
LINE
5
174
100
AcDbEntity
8
0
100
AcDbLine
10
6.8499999999999979
20
5.8500000000000041
30
0
11
7.9999999999999982
21
5.8500000000000014
31
0
0
LINE
5
175
100
AcDbEntity
8
0
100
AcDbLine
10
7.9999999999999982
20
5.1500000000000039
30
0
11
6.8499999999999979
21
5.1499999999999986
31
0
0
LINE
5
176
100
AcDbEntity
8
0
100
AcDbLine
10
6.8499999999999472
20
6.2499999999999982
30
0
11
6.8499999999999561
21
6.9500000000000277
31
0
0
LINE
5
177
100
AcDbEntity
8
0
100
AcDbLine
10
6.8499999999999472
20
6.2499999999999982
30
0
11
8
21
6.9499999999999984
31
0
0
LINE
5
178
100
AcDbEntity
8
0
100
AcDbLine
10
8
20
6.2499999999999982
30
0
11
6.8499999999999561
21
6.9500000000000277
31
0
0
LINE
5
179
100
AcDbEntity
8
0
100
AcDbLine
10
8
20
6.9499999999999984
30
0
11
8
21
6.2499999999999982
31
0
0
LINE
5
180
100
AcDbEntity
8
0
100
AcDbLine
10
6.8499999999999561
20
6.9500000000000277
30
0
11
8
21
6.9499999999999984
31
0
0
LINE
5
181
100
AcDbEntity
8
0
100
AcDbLine
10
8
20
6.2499999999999982
30
0
11
6.8499999999999472
21
6.2499999999999982
31
0
0
LINE
5
182
100
AcDbEntity
8
0
100
AcDbLine
10
7.4249999999999989
20
8.8575530948732926
30
0
11
7.4249999999999989
21
-4.3212905627418117
31
0
0
ENDSEC
0
SECTION
2
OBJECTS
0
DICTIONARY
5
C
100
AcDbDictionary
3
ACAD_GROUP
350
D
3
ACAD_MLINESTYLE
350
17
0
DICTIONARY
5
D
100
AcDbDictionary
0
DICTIONARY
5
1A
330
C
100
AcDbDictionary
0
DICTIONARY
5
17
100
AcDbDictionary
0
ENDSEC
0
EOF
