0
SECTION
2
HEADER
9
$INSUNITS
70
4
9
$ACADVER
1
AC1014
9
$HANDSEED
5
FFFF
0
ENDSEC
0
SECTION
2
TABLES
0
TABLE
2
VPORT
5
8
100
AcDbSymbolTable
0
ENDTAB
0
TABLE
2
LTYPE
5
5
100
AcDbSymbolTable
0
LTYPE
5
14
100
AcDbSymbolTableRecord
100
AcDbLinetypeTableRecord
2
BYBLOCK
70
0
0
LTYPE
5
15
100
AcDbSymbolTableRecord
100
AcDbLinetypeTableRecord
2
BYLAYER
70
0
0
ENDTAB
0
TABLE
2
LAYER
5
2
100
AcDbSymbolTable
70
2
0
LAYER
5
50
100
AcDbSymbolTableRecord
100
AcDbLayerTableRecord
2
0
70
0
6
CONTINUOUS
0
ENDTAB
0
TABLE
2
STYLE
5
3
100
AcDbSymbolTable
70
1
0
STYLE
5
11
100
AcDbSymbolTableRecord
100
AcDbTextStyleTableRecord
2
STANDARD
70
0
0
ENDTAB
0
TABLE
2
VIEW
5
6
100
AcDbSymbolTable
70
0
0
ENDTAB
0
TABLE
2
UCS
5
7
100
AcDbSymbolTable
70
0
0
ENDTAB
0
TABLE
2
APPID
5
9
100
AcDbSymbolTable
70
2
0
APPID
5
12
100
AcDbSymbolTableRecord
100
AcDbRegAppTableRecord
2
ACAD
70
0
0
ENDTAB
0
TABLE
2
DIMSTYLE
5
A
100
AcDbSymbolTable
70
1
0
ENDTAB
0
TABLE
2
BLOCK_RECORD
5
1
100
AcDbSymbolTable
70
1
0
BLOCK_RECORD
5
1F
100
AcDbSymbolTableRecord
100
AcDbBlockTableRecord
2
*MODEL_SPACE
0
BLOCK_RECORD
5
1B
100
AcDbSymbolTableRecord
100
AcDbBlockTableRecord
2
*PAPER_SPACE
0
ENDTAB
0
ENDSEC
0
SECTION
2
BLOCKS
0
BLOCK
5
20
100
AcDbEntity
100
AcDbBlockBegin
2
*MODEL_SPACE
0
ENDBLK
5
21
100
AcDbEntity
100
AcDbBlockEnd
0
BLOCK
5
1C
100
AcDbEntity
100
AcDbBlockBegin
2
*PAPER_SPACE
0
ENDBLK
5
1D
100
AcDbEntity
100
AcDbBlockEnd
0
ENDSEC
0
SECTION
2
ENTITIES
0
CIRCLE
5
100
100
AcDbEntity
8
0
100
AcDbCircle
10
-0.021657361523103047
20
3.9999999999999991
30
0
40
0.5
0
LINE
5
101
100
AcDbEntity
8
0
100
AcDbLine
10
10.699999760836361
20
0
30
0
11
-20.215177170783175
21
0
31
0
0
CIRCLE
5
102
100
AcDbEntity
8
0
100
AcDbCircle
10
-0.021657361525385666
20
-3.9999999999960507
30
0
40
0.5
0
LINE
5
103
100
AcDbEntity
8
0
100
AcDbLine
10
1.4783426384768994
20
-9.4196026820550731
30
0
11
-0.72165736152310345
21
-9.4196026820550767
31
0
0
LINE
5
104
100
AcDbEntity
8
0
100
AcDbLine
10
-0.72165736152310345
20
-9.4196026820550767
30
0
11
-0.72165736152310189
21
-8.2196026820550951
31
0
0
LINE
5
105
100
AcDbEntity
8
0
100
AcDbLine
10
-0.72165736152310189
20
-8.2196026820550951
30
0
11
1.478342638476899
21
-8.2196026820550987
31
0
0
LINE
5
106
100
AcDbEntity
8
0
100
AcDbLine
10
1.478342638476899
20
-8.2196026820550987
30
0
11
1.4783426384768994
21
-9.4196026820550731
31
0
0
LINE
5
107
100
AcDbEntity
8
0
100
AcDbLine
10
1.4783426384768994
20
-9.4196026820550731
30
0
11
-0.72165736152310189
21
-8.2196026820550951
31
0
0
LINE
5
108
100
AcDbEntity
8
0
100
AcDbLine
10
-0.72165736152310345
20
-9.4196026820550767
30
0
11
1.478342638476899
21
-8.2196026820550987
31
0
0
LINE
5
109
100
AcDbEntity
8
0
100
AcDbLine
10
11.095118665559252
20
6.0999998457729756
30
0
11
9.6951186655592547
21
6.0999998457729756
31
0
0
LINE
5
110
100
AcDbEntity
8
0
100
AcDbLine
10
9.6951186655592547
20
6.0999998457729756
30
0
11
9.6951186655592547
21
7.6999998457729752
31
0
0
LINE
5
111
100
AcDbEntity
8
0
100
AcDbLine
10
9.6951186655592547
20
7.6999998457729752
30
0
11
11.095118665559252
21
7.6999998457729752
31
0
0
LINE
5
112
100
AcDbEntity
8
0
100
AcDbLine
10
11.095118665559252
20
7.6999998457729752
30
0
11
11.095118665559252
21
6.0999998457729756
31
0
0
LINE
5
113
100
AcDbEntity
8
0
100
AcDbLine
10
11.095118665559252
20
6.0999998457729756
30
0
11
9.6951186655592547
21
7.6999998457729752
31
0
0
LINE
5
114
100
AcDbEntity
8
0
100
AcDbLine
10
9.6951186655592547
20
6.0999998457729756
30
0
11
11.095118665559252
21
7.6999998457729752
31
0
0
LINE
5
115
100
AcDbEntity
8
0
100
AcDbLine
10
11.499999760836364
20
5.2499999999999991
30
0
11
9.8999997608363639
21
5.2499999999999991
31
0
0
LINE
5
116
100
AcDbEntity
8
0
100
AcDbLine
10
9.8999997608363639
20
5.2499999999999991
30
0
11
9.8999997608363621
21
5.9500000000000011
31
0
0
LINE
5
117
100
AcDbEntity
8
0
100
AcDbLine
10
9.8999997608363621
20
5.9500000000000011
30
0
11
11.499999760836364
21
5.9499999999999993
31
0
0
LINE
5
118
100
AcDbEntity
8
0
100
AcDbLine
10
11.499999760836364
20
5.9499999999999993
30
0
11
11.499999760836364
21
5.2499999999999991
31
0
0
LINE
5
119
100
AcDbEntity
8
0
100
AcDbLine
10
11.499999760836364
20
5.2499999999999991
30
0
11
9.8999997608363621
21
5.9500000000000011
31
0
0
LINE
5
120
100
AcDbEntity
8
0
100
AcDbLine
10
9.8999997608363639
20
5.2499999999999991
30
0
11
11.499999760836364
21
5.9499999999999993
31
0
0
LINE
5
121
100
AcDbEntity
8
0
100
AcDbLine
10
11.499999760836365
20
4.1500000000000021
30
0
11
9.8999997608363675
21
4.1500000000000012
31
0
0
LINE
5
122
100
AcDbEntity
8
0
100
AcDbLine
10
9.8999997608363675
20
4.1500000000000012
30
0
11
9.8999997608363639
21
4.8500000000000014
31
0
0
LINE
5
123
100
AcDbEntity
8
0
100
AcDbLine
10
9.8999997608363639
20
4.8500000000000014
30
0
11
11.499999760836365
21
4.8500000000000014
31
0
0
LINE
5
124
100
AcDbEntity
8
0
100
AcDbLine
10
11.499999760836365
20
4.8500000000000014
30
0
11
11.499999760836365
21
4.1500000000000021
31
0
0
LINE
5
125
100
AcDbEntity
8
0
100
AcDbLine
10
11.499999760836365
20
4.1500000000000021
30
0
11
9.8999997608363639
21
4.8500000000000014
31
0
0
LINE
5
126
100
AcDbEntity
8
0
100
AcDbLine
10
9.8999997608363675
20
4.1500000000000012
30
0
11
11.499999760836365
21
4.8500000000000014
31
0
0
LINE
5
127
100
AcDbEntity
8
0
100
AcDbLine
10
11.499999760836364
20
3.0500000000000012
30
0
11
9.8999997608363639
21
3.0499999999999998
31
0
0
LINE
5
128
100
AcDbEntity
8
0
100
AcDbLine
10
9.8999997608363639
20
3.0499999999999998
30
0
11
9.8999997608363639
21
3.7500000000000004
31
0
0
LINE
5
129
100
AcDbEntity
8
0
100
AcDbLine
10
9.8999997608363639
20
3.7500000000000004
30
0
11
11.499999760836364
21
3.7500000000000004
31
0
0
LINE
5
130
100
AcDbEntity
8
0
100
AcDbLine
10
11.499999760836364
20
3.7500000000000004
30
0
11
11.499999760836364
21
3.0500000000000012
31
0
0
LINE
5
131
100
AcDbEntity
8
0
100
AcDbLine
10
11.499999760836364
20
3.0500000000000012
30
0
11
9.8999997608363639
21
3.7500000000000004
31
0
0
LINE
5
132
100
AcDbEntity
8
0
100
AcDbLine
10
9.8999997608363639
20
3.0499999999999998
30
0
11
11.499999760836364
21
3.7500000000000004
31
0
0
LINE
5
133
100
AcDbEntity
8
0
100
AcDbLine
10
11.499999760836362
20
1.9500000000000002
30
0
11
9.8999997608363639
21
1.9500000000000004
31
0
0
LINE
5
134
100
AcDbEntity
8
0
100
AcDbLine
10
9.8999997608363639
20
1.9500000000000004
30
0
11
9.8999997608363639
21
2.6499999999999986
31
0
0
LINE
5
135
100
AcDbEntity
8
0
100
AcDbLine
10
9.8999997608363639
20
2.6499999999999986
30
0
11
11.499999760836362
21
2.6500000000000017
31
0
0
LINE
5
136
100
AcDbEntity
8
0
100
AcDbLine
10
11.499999760836362
20
2.6500000000000017
30
0
11
11.499999760836362
21
1.9500000000000002
31
0
0
LINE
5
137
100
AcDbEntity
8
0
100
AcDbLine
10
11.499999760836362
20
1.9500000000000002
30
0
11
9.8999997608363639
21
2.6499999999999986
31
0
0
LINE
5
138
100
AcDbEntity
8
0
100
AcDbLine
10
9.8999997608363639
20
1.9500000000000004
30
0
11
11.499999760836362
21
2.6500000000000017
31
0
0
LINE
5
139
100
AcDbEntity
8
0
100
AcDbLine
10
11.499999760836364
20
0.84999999999999976
30
0
11
9.8999997608363604
21
0.85000000000000031
31
0
0
LINE
5
140
100
AcDbEntity
8
0
100
AcDbLine
10
9.8999997608363604
20
0.85000000000000031
30
0
11
9.8999997608363657
21
1.5499999999999976
31
0
0
LINE
5
141
100
AcDbEntity
8
0
100
AcDbLine
10
9.8999997608363657
20
1.5499999999999976
30
0
11
11.499999760836364
21
1.5499999999999994
31
0
0
LINE
5
142
100
AcDbEntity
8
0
100
AcDbLine
10
11.499999760836364
20
1.5499999999999994
30
0
11
11.499999760836364
21
0.84999999999999976
31
0
0
LINE
5
143
100
AcDbEntity
8
0
100
AcDbLine
10
11.499999760836364
20
0.84999999999999976
30
0
11
9.8999997608363657
21
1.5499999999999976
31
0
0
LINE
5
144
100
AcDbEntity
8
0
100
AcDbLine
10
9.8999997608363604
20
0.85000000000000031
30
0
11
11.499999760836364
21
1.5499999999999994
31
0
0
LINE
5
145
100
AcDbEntity
8
0
100
AcDbLine
10
11.499999760836362
20
-0.2500000022351585
30
0
11
9.8999997608363604
21
-0.25000000223515872
31
0
0
LINE
5
146
100
AcDbEntity
8
0
100
AcDbLine
10
9.8999997608363604
20
-0.25000000223515872
30
0
11
9.8999997608363604
21
0.44999999776483662
31
0
0
LINE
5
147
100
AcDbEntity
8
0
100
AcDbLine
10
9.8999997608363604
20
0.44999999776483662
30
0
11
11.499999760836362
21
0.44999999776483846
31
0
0
LINE
5
148
100
AcDbEntity
8
0
100
AcDbLine
10
11.499999760836362
20
0.44999999776483846
30
0
11
11.499999760836362
21
-0.2500000022351585
31
0
0
LINE
5
149
100
AcDbEntity
8
0
100
AcDbLine
10
11.499999760836362
20
-0.2500000022351585
30
0
11
9.8999997608363604
21
0.44999999776483662
31
0
0
LINE
5
150
100
AcDbEntity
8
0
100
AcDbLine
10
9.8999997608363604
20
-0.25000000223515872
30
0
11
11.499999760836362
21
0.44999999776483846
31
0
0
LINE
5
151
100
AcDbEntity
8
0
100
AcDbLine
10
10.699999760836365
20
5.6000000000000005
30
0
11
10.699999760836356
21
-6.5571262342108705
31
0
0
LINE
5
152
100
AcDbEntity
8
0
100
AcDbLine
10
11.499999760836365
20
-1.3500000022351613
30
0
11
9.8999997608363639
21
-1.3500000022351615
31
0
0
LINE
5
153
100
AcDbEntity
8
0
100
AcDbLine
10
9.8999997608363639
20
-1.3500000022351615
30
0
11
9.8999997608363639
21
-0.65000000223516219
31
0
0
LINE
5
154
100
AcDbEntity
8
0
100
AcDbLine
10
9.8999997608363639
20
-0.65000000223516219
30
0
11
11.499999760836365
21
-0.65000000223516041
31
0
0
LINE
5
155
100
AcDbEntity
8
0
100
AcDbLine
10
11.499999760836365
20
-0.65000000223516041
30
0
11
11.499999760836365
21
-1.3500000022351613
31
0
0
LINE
5
156
100
AcDbEntity
8
0
100
AcDbLine
10
11.499999760836365
20
-1.3500000022351613
30
0
11
9.8999997608363639
21
-0.65000000223516219
31
0
0
LINE
5
157
100
AcDbEntity
8
0
100
AcDbLine
10
9.8999997608363639
20
-1.3500000022351615
30
0
11
11.499999760836365
21
-0.65000000223516041
31
0
0
LINE
5
158
100
AcDbEntity
8
0
100
AcDbLine
10
11.499999760836356
20
-2.4500000022351607
30
0
11
9.8999997608363621
21
-2.4500000022351616
31
0
0
LINE
5
159
100
AcDbEntity
8
0
100
AcDbLine
10
9.8999997608363621
20
-2.4500000022351616
30
0
11
9.8999997608363586
21
-1.7500000022351581
31
0
0
LINE
5
160
100
AcDbEntity
8
0
100
AcDbLine
10
9.8999997608363586
20
-1.7500000022351581
30
0
11
11.499999760836356
21
-1.7500000022351612
31
0
0
LINE
5
161
100
AcDbEntity
8
0
100
AcDbLine
10
11.499999760836356
20
-1.7500000022351612
30
0
11
11.499999760836356
21
-2.4500000022351607
31
0
0
LINE
5
162
100
AcDbEntity
8
0
100
AcDbLine
10
11.499999760836356
20
-2.4500000022351607
30
0
11
9.8999997608363586
21
-1.7500000022351581
31
0
0
LINE
5
163
100
AcDbEntity
8
0
100
AcDbLine
10
9.8999997608363621
20
-2.4500000022351616
30
0
11
11.499999760836356
21
-1.7500000022351612
31
0
0
LINE
5
164
100
AcDbEntity
8
0
100
AcDbLine
10
11.499999760836362
20
-2.8500000022351606
30
0
11
9.8999997608363604
21
-2.8500000022351606
31
0
0
LINE
5
165
100
AcDbEntity
8
0
100
AcDbLine
10
9.8999997608363604
20
-2.8500000022351606
30
0
11
9.8999997608363604
21
-3.5500000022351621
31
0
0
LINE
5
166
100
AcDbEntity
8
0
100
AcDbLine
10
9.8999997608363604
20
-3.5500000022351621
30
0
11
11.499999760836362
21
-3.5500000022351603
31
0
0
LINE
5
167
100
AcDbEntity
8
0
100
AcDbLine
10
11.499999760836362
20
-3.5500000022351603
30
0
11
11.499999760836362
21
-2.8500000022351606
31
0
0
LINE
5
168
100
AcDbEntity
8
0
100
AcDbLine
10
11.499999760836362
20
-2.8500000022351606
30
0
11
9.8999997608363604
21
-3.5500000022351621
31
0
0
LINE
5
169
100
AcDbEntity
8
0
100
AcDbLine
10
9.8999997608363604
20
-2.8500000022351606
30
0
11
11.499999760836362
21
-3.5500000022351603
31
0
0
LINE
5
170
100
AcDbEntity
8
0
100
AcDbLine
10
11.058041124664506
20
-8.1078994826728028
30
0
11
9.6580411246645053
21
-8.1078994826728259
31
0
0
LINE
5
171
100
AcDbEntity
8
0
100
AcDbLine
10
9.6580411246645053
20
-8.1078994826728259
30
0
11
9.6580411246644822
21
-6.507899482672828
31
0
0
LINE
5
172
100
AcDbEntity
8
0
100
AcDbLine
10
9.6580411246644822
20
-6.507899482672828
30
0
11
11.058041124664479
21
-6.5078994826728032
31
0
0
LINE
5
173
100
AcDbEntity
8
0
100
AcDbLine
10
11.058041124664479
20
-6.5078994826728032
30
0
11
11.058041124664506
21
-8.1078994826728028
31
0
0
LINE
5
174
100
AcDbEntity
8
0
100
AcDbLine
10
11.058041124664506
20
-8.1078994826728028
30
0
11
9.6580411246644822
21
-6.507899482672828
31
0
0
LINE
5
175
100
AcDbEntity
8
0
100
AcDbLine
10
9.6580411246645053
20
-8.1078994826728259
30
0
11
11.058041124664479
21
-6.5078994826728032
31
0
0
LINE
5
176
100
AcDbEntity
8
0
100
AcDbLine
10
0.37834263847689731
20
6.800000000000793
30
0
11
0.37834263847689953
21
-14.459243677592646
31
0
0
LINE
5
177
100
AcDbEntity
8
0
100
AcDbLine
10
-0.021657361523103047
20
3.9999999999999991
30
0
11
-0.021657361523103047
21
-3.9999999999999991
31
0
0
LINE
5
178
100
AcDbEntity
8
0
100
AcDbLine
10
1.478342638476897
20
5.8974266495144745
30
0
11
-0.72165736152309745
21
5.8974266495144745
31
0
0
LINE
5
179
100
AcDbEntity
8
0
100
AcDbLine
10
-0.72165736152309745
20
5.8974266495144745
30
0
11
-0.72165736152309712
21
7.2895659718896857
31
0
0
LINE
5
180
100
AcDbEntity
8
0
100
AcDbLine
10
-0.72165736152309712
20
7.2895659718896857
30
0
11
1.478342638476897
21
7.2895659718896857
31
0
0
LINE
5
181
100
AcDbEntity
8
0
100
AcDbLine
10
1.478342638476897
20
7.2895659718896857
30
0
11
1.478342638476897
21
5.8974266495144745
31
0
0
LINE
5
182
100
AcDbEntity
8
0
100
AcDbLine
10
1.478342638476897
20
5.8974266495144745
30
0
11
-0.72165736152309712
21
7.2895659718896857
31
0
0
LINE
5
183
100
AcDbEntity
8
0
100
AcDbLine
10
-0.72165736152309745
20
5.8974266495144745
30
0
11
1.478342638476897
21
7.2895659718896857
31
0
0
LINE
5
184
100
AcDbEntity
8
0
100
AcDbLine
10
1.200000294297936
20
6.4000002448447058
30
0
11
9.8000007353723078
21
6.4000002448447031
31
0
0
LINE
5
185
100
AcDbEntity
8
0
100
AcDbLine
10
-3.0000004686415194
20
-2.6000001127831629
30
0
11
-3.0000004686415171
21
6.4000002448447058
31
0
0
LINE
5
186
100
AcDbEntity
8
0
100
AcDbLine
10
-3.6999998010694979
20
-8.3000000412575901
30
0
11
-3.6999998010694979
21
-5.2999999220482996
31
0
0
LINE
5
187
100
AcDbEntity
8
0
100
AcDbLine
10
1.200000294297936
20
6.4000002448447058
30
0
11
9.8000007353723078
21
6.4000002448447031
31
0
0
LINE
5
188
100
AcDbEntity
8
0
100
AcDbLine
10
8.8000004969537251
20
-8.3000000412575918
30
0
11
1.2000002942979338
21
-8.3070500041358173
31
0
0
LINE
5
189
100
AcDbEntity
8
0
100
AcDbLine
10
10.800000005215406
20
-3.3499999935738756
30
0
11
10.800000005215406
21
-7.7999999965541083
31
0
0
LINE
5
190
100
AcDbEntity
8
0
100
AcDbLine
10
8.8000004969537251
20
-8.3000000412575918
30
0
11
1.2000002942979338
21
-8.3070500041358173
31
0
0
LINE
5
191
100
AcDbEntity
8
0
100
AcDbLine
10
-3.0000004686415171
20
6.4000002448447058
30
0
11
-0.39999937191605328
21
6.407050282228739
31
0
0
LINE
5
192
100
AcDbEntity
8
0
100
AcDbLine
10
-0.3999993719160555
20
-8.3000000412575901
30
0
11
-3.6999998010694979
21
-8.3000000412575901
31
0
0
LINE
5
193
100
AcDbEntity
8
0
100
AcDbLine
10
10.800000005215406
20
-3.3499999935738756
30
0
11
10.800000005215406
21
-7.7999999965541083
31
0
0
ENDSEC
0
SECTION
2
OBJECTS
0
DICTIONARY
5
C
100
AcDbDictionary
3
ACAD_GROUP
350
D
3
ACAD_MLINESTYLE
350
17
0
DICTIONARY
5
D
100
AcDbDictionary
0
DICTIONARY
5
1A
330
C
100
AcDbDictionary
0
DICTIONARY
5
17
100
AcDbDictionary
0
ENDSEC
0
EOF
